<svg width="135" height="33" viewBox="0 0 135 33" fill="none" xmlns="http://www.w3.org/2000/svg">
<path fill-rule="evenodd" clip-rule="evenodd" d="M19.537 8.6346C21.0186 6.03903 24.3033 5.14783 26.8735 6.64405C29.4438 8.14027 30.3264 11.4573 28.8448 14.0529L22.5741 25.0022L29.2595 24.9976L33.8567 16.9704C36.9339 11.5796 35.1009 4.69038 29.7626 1.58284C24.4243 -1.52469 17.6022 0.326258 14.5251 5.71706L8.74699 15.8395C7.94921 17.2371 8.42443 19.0232 9.80843 19.8289C11.1924 20.6345 12.9611 20.1546 13.7589 18.757L19.537 8.6346ZM15.8243 20.152C14.3427 22.7476 11.058 23.6388 8.48771 22.1426C5.91743 20.6464 5.03487 17.3293 6.51647 14.7337L12.2945 4.61131C13.0923 3.2137 12.6171 1.42759 11.2331 0.621935C9.8491 -0.183721 8.08041 0.296156 7.28263 1.69377L1.50456 11.8162C-1.57261 17.207 0.260393 24.0963 5.59868 27.2038C7.29171 28.1893 9.13399 28.6761 10.9587 28.7095L8.8878 32.3374L15.5544 32.3329L20.9691 22.847L20.9647 22.8444L26.6143 12.9471C27.4121 11.5495 26.9368 9.76343 25.5528 8.95777C24.1688 8.15211 22.4001 8.63199 21.6024 10.0296L15.8243 20.152Z" fill="#232323"/>
<path fill-rule="evenodd" clip-rule="evenodd" d="M46.4905 7.51759L46.4888 5.00732L47.7467 5.00647L47.7484 7.51674C47.7491 8.55653 48.5945 9.39886 49.6366 9.39816L54.0394 9.39516L54.0364 5.00218L55.2943 5.00133L55.2977 10.0219C55.2989 11.7548 53.8919 13.1607 52.155 13.1618L46.4943 13.1657L47.1224 11.9101L52.1542 11.9067C52.9757 11.9062 53.6743 11.3818 53.9328 10.6504L49.6374 10.6533C47.9006 10.6545 46.4917 9.25057 46.4905 7.51759Z" fill="#232323"/>
<path fill-rule="evenodd" clip-rule="evenodd" d="M69.2378 13.1706L67.6925 13.1717L66.5397 7.63754L63.8884 12.7394C63.6905 13.0953 63.4529 13.2536 63.1755 13.2538C62.8189 13.2541 62.5414 13.0566 62.3431 12.7404L59.6848 7.6422L58.5395 13.1779L56.9942 13.179L58.7723 5.90328C58.8118 5.70557 58.9306 5.50782 59.0493 5.38913C59.2077 5.23088 59.4058 5.15167 59.5643 5.15157C59.8416 5.15138 60.1588 5.38837 60.4365 5.94168L63.0552 11.119L65.7064 5.93809C65.9835 5.42394 66.221 5.14703 66.5776 5.14679C66.7757 5.14666 66.9739 5.22559 67.0929 5.38365C67.2515 5.54168 67.3309 5.73931 67.3706 5.89742L69.2378 13.1706Z" fill="#232323"/>
<path fill-rule="evenodd" clip-rule="evenodd" d="M71.2183 13.1318L72.6051 13.1309L72.6035 10.8559L77.7544 10.8524L77.7559 13.1274L79.1031 13.1264L79.0977 5.21948L77.7506 5.2204L77.7535 9.5082L72.6026 9.51171L72.5997 5.22391L71.2129 5.22485L71.2183 13.1318Z" fill="#232323"/>
<path fill-rule="evenodd" clip-rule="evenodd" d="M90.9912 13.1198L89.2082 13.121L87.8594 10.8684L83.4784 10.8714L82.1155 13.0863L80.3325 13.0875L84.6466 5.96821C84.7257 5.77048 84.8841 5.61224 85.0821 5.4935C85.3197 5.29566 85.5178 5.25599 85.7159 5.25585C85.9141 5.25572 86.1518 5.33463 86.3501 5.49263C86.5483 5.65064 86.7069 5.84821 86.7863 6.00629L90.9912 13.1198ZM87.066 9.52474L84.3058 9.52662L85.7173 7.23261L87.066 9.52474Z" fill="#232323"/>
<path fill-rule="evenodd" clip-rule="evenodd" d="M91.7436 13.1169L93.804 13.1155L96.0214 10.9001L99.8252 10.8975L99.8268 13.151L101.174 13.1501L101.169 5.24309L95.5421 5.24692C94.5119 5.24762 93.68 5.4854 93.0463 5.92071C92.3334 6.39562 91.9773 7.18656 91.978 8.13539C91.9784 8.80749 92.177 9.40037 92.6131 9.83496C93.0096 10.2696 93.525 10.625 94.1987 10.7432L91.7436 13.1169ZM95.3073 9.55638L99.8243 9.55331L99.8223 6.58819L95.3053 6.59127C94.0373 6.59213 93.4037 7.10652 93.4044 8.09489C93.4047 8.56931 93.6031 8.96452 93.9995 9.20146C94.3959 9.47793 94.8318 9.55671 95.3073 9.55638Z" fill="#232323"/>
<path fill-rule="evenodd" clip-rule="evenodd" d="M68.478 21.0191C68.4772 19.7539 68.8728 18.8048 69.6252 18.2113C70.2985 17.7364 71.3284 17.4194 72.636 17.4186L75.5681 17.4166L74.94 18.7612L72.6369 18.7627C71.7652 18.7633 71.0917 18.9219 70.6561 19.199C70.1412 19.5551 69.8642 20.1088 69.8648 20.9786L69.8678 25.3274L68.5206 25.3283L68.478 21.0191Z" fill="#232323"/>
<path fill-rule="evenodd" clip-rule="evenodd" d="M56.1591 25.2965L54.3761 25.2978L53.067 23.0847L52.234 21.741L50.8852 19.4489L47.2835 25.3026L45.5004 25.3038L49.8145 18.1845C49.8937 17.9868 50.052 17.8285 50.2501 17.7098C50.4877 17.512 50.6858 17.4723 50.8839 17.4722C51.082 17.472 51.3198 17.5509 51.518 17.7089C51.7163 17.8669 51.8749 18.0645 51.9542 18.2226L56.1591 25.2965Z" fill="#232323"/>
<path fill-rule="evenodd" clip-rule="evenodd" d="M66.7356 21.2543C66.7363 22.4008 66.3408 23.3894 65.6281 24.1806C64.9154 24.9718 63.9251 25.3283 62.776 25.3291L60.5571 25.3306C59.408 25.3314 58.4568 24.9367 57.7034 24.186C56.9104 23.3959 56.5928 22.4472 56.592 21.2612C56.5912 20.1146 56.9868 19.1655 57.6995 18.4534C58.4123 17.7413 59.4026 17.3848 60.5517 17.384L62.7706 17.3825C63.9197 17.3817 64.9105 17.7369 65.6242 18.448C66.3379 19.1592 66.7348 20.1077 66.7356 21.2543ZM65.3488 21.3738C65.3483 20.5831 65.1101 19.9507 64.6343 19.4766C64.1585 19.0025 63.5244 18.7657 62.7319 18.7663L60.513 18.7678C59.7205 18.7683 59.166 19.0059 58.6116 19.4807C58.0968 19.9555 57.8991 20.5882 57.8996 21.3789C57.9002 22.1696 58.1383 22.7229 58.6141 23.2366C59.0899 23.7107 59.724 23.9079 60.5165 23.9074L62.7354 23.9058C63.5279 23.9053 64.1617 23.6677 64.6369 23.2325C65.112 22.7577 65.3493 22.125 65.3488 21.3738Z" fill="#232323"/>
<path fill-rule="evenodd" clip-rule="evenodd" d="M77.0737 24.6092C77.0741 25.0836 77.2724 25.3997 77.5894 25.3995C77.8271 25.3993 78.1044 25.241 78.4608 24.9245L83.5686 19.821L83.5724 25.3559L84.9196 25.355L84.9146 18.0806C84.9145 17.8829 84.8748 17.7248 84.7558 17.6063C84.6765 17.4482 84.518 17.4087 84.3198 17.4089C84.0821 17.409 83.8049 17.5674 83.5277 17.8443L78.4198 22.9082L78.416 17.4129L77.0688 17.4138L77.0737 24.6092Z" fill="#232323"/>
<path fill-rule="evenodd" clip-rule="evenodd" d="M94.9436 25.3077L90.4662 25.3107C89.3172 25.3115 88.366 24.9168 87.6126 24.1662C86.8196 23.376 86.502 22.4274 86.5012 21.2414C86.5004 20.0948 86.896 19.1457 87.6087 18.4336C88.3214 17.7215 89.3118 17.365 90.4608 17.3642L94.9382 17.3612L94.3102 18.7058L90.4617 18.7084C89.6693 18.709 89.1147 18.9466 88.5603 19.4214C88.0456 19.8961 87.8479 20.5288 87.8484 21.3195C87.8489 22.1102 88.0871 22.6635 88.5629 23.1772C89.0387 23.6513 89.6728 23.8485 90.4652 23.848L94.9426 23.8449L94.9436 25.3077Z" fill="#232323"/>
<path fill-rule="evenodd" clip-rule="evenodd" d="M103.622 18.7801L101.121 18.7818L101.126 25.3051L99.7783 25.306L99.7739 18.7827L95.9751 18.7853L96.6031 17.4012L104.25 17.396L103.622 18.7801Z" fill="#232323"/>
<path fill-rule="evenodd" clip-rule="evenodd" d="M105.721 24.5921C105.722 25.0665 105.92 25.3826 106.237 25.3824C106.475 25.3823 106.752 25.2239 107.108 24.9074L112.216 19.8039L112.22 25.3388L113.567 25.3379L113.562 18.0635C113.562 17.8658 113.522 17.7077 113.403 17.5892C113.324 17.4311 113.165 17.3917 112.967 17.3918C112.73 17.392 112.452 17.5503 112.175 17.8272L107.067 22.8912L107.063 17.3958L105.716 17.3967L105.721 24.5921Z" fill="#232323"/>
<path fill-rule="evenodd" clip-rule="evenodd" d="M123.591 25.2893L121.53 25.2907L117.605 22.012C117.328 21.775 117.169 21.5774 117.169 21.3797C117.169 21.1821 117.327 20.9843 117.605 20.7469L121.525 17.3838L123.585 17.3823L118.873 21.4181L123.591 25.2893Z" fill="#232323"/>
<path fill-rule="evenodd" clip-rule="evenodd" d="M116.975 25.2928L115.627 25.2937L115.622 17.3867L116.969 17.3858L116.975 25.2928Z" fill="#232323"/>
<path fill-rule="evenodd" clip-rule="evenodd" d="M134.844 25.2421L133.061 25.2433L131.752 23.0303L127.371 23.0332L126.008 25.2482L124.225 25.2494L128.539 18.1301C128.618 17.9323 128.777 17.7741 128.975 17.6554C129.212 17.4575 129.41 17.4179 129.609 17.4177C129.807 17.4176 130.044 17.4965 130.243 17.6545C130.441 17.8125 130.599 18.0101 130.679 18.1682L134.844 25.2421ZM130.959 21.6866L128.202 21.6885L129.61 19.3945L130.959 21.6866Z" fill="#232323"/>
</svg>
